<svg width="65" height="64" viewBox="0 0 65 64" fill="none" xmlns="http://www.w3.org/2000/svg">
<g clipPath="url(#clip0_4208_85390)">
<path d="M38.9297 0.869141C40.2663 1.04581 41.548 1.43914 42.8147 1.88081C46.293 3.08914 49.4813 4.81914 52.353 7.13914C55.538 9.71414 58.1897 12.7475 60.2097 16.3041C61.8263 19.1541 62.9947 22.1875 63.6397 25.4175C63.953 26.9875 64.1413 28.5608 64.258 30.1575C64.523 33.7741 64.028 37.2858 63.1513 40.7841C62.838 42.0341 62.4363 43.2708 61.9263 44.4058C60.9963 46.4791 59.9263 48.5075 58.5947 50.3808C57.2013 52.3408 55.583 54.0908 53.8447 55.7308C52.308 57.1808 50.5913 58.4108 48.7747 59.4908C45.9213 61.1875 42.878 62.4275 39.643 63.1741C38.2363 63.4991 36.8213 63.8208 35.3663 63.8641C35.2513 63.8675 35.1097 63.8225 35.0563 63.9875H29.6947C29.653 63.9491 29.613 63.8791 29.5697 63.8775C28.3813 63.8425 27.2263 63.5891 26.063 63.3691C22.5097 62.6975 19.2063 61.3691 16.1063 59.5441C13.498 58.0091 11.158 56.1125 9.08801 53.9008C8.46134 53.2308 7.82967 52.5508 7.33301 51.7691C7.55967 51.7225 7.72634 51.8358 7.90134 51.9591C9.48134 53.0708 11.1547 54.0175 12.9247 54.7975C14.858 55.6491 16.868 56.2591 18.9197 56.7208C19.4147 56.8325 19.9413 57.0908 20.4847 56.8625C20.8947 56.9891 21.3063 57.1175 21.7163 57.2441C24.7413 58.6808 27.9663 59.3041 31.2747 59.4825C33.7763 59.6175 36.2597 59.3391 38.7047 58.7525C44.5797 57.3425 49.4663 54.3225 53.373 49.7275C54.793 48.0575 56.0063 46.2391 56.9913 44.2691C58.0997 42.0508 58.8847 39.7241 59.3513 37.3008C59.7413 35.2808 59.8147 33.2291 59.7747 31.1641C59.7363 29.2108 59.4747 27.3025 59.028 25.4175C57.978 20.9775 55.783 17.1308 52.7947 13.7275C52.0747 12.9075 51.3313 12.0841 50.423 11.4491C50.0847 11.1275 49.7447 10.8058 49.4063 10.4858C49.4613 10.2008 49.258 10.0175 49.1197 9.82247C48.3097 8.67247 47.3997 7.59914 46.4163 6.60081C44.4513 4.60747 42.258 2.89414 39.818 1.50414C39.508 1.32747 39.1163 1.23581 38.933 0.870807L38.9297 0.869141Z" fill="#E14856"/>
<path d="M20.4831 56.8608C19.9398 57.0908 19.4131 56.8308 18.9181 56.7192C16.8664 56.2575 14.8564 55.6475 12.9231 54.7958C11.1531 54.0158 9.47976 53.0692 7.89977 51.9575C7.72477 51.8342 7.5581 51.7192 7.33143 51.7675C7.24143 51.6825 7.1331 51.6108 7.06476 51.5125C5.7581 49.6192 4.49143 47.7092 3.5131 45.6108C2.1131 42.6042 1.14977 39.4875 0.744766 36.1892C0.683099 35.6892 0.791432 35.1475 0.509766 34.6792V29.4408C0.849766 28.9508 0.674766 28.3742 0.749766 27.8442C1.20143 24.6092 2.0981 21.5292 3.5031 18.5675C4.56977 16.3175 5.87477 14.2425 7.38143 12.2758C9.11643 10.0125 11.1681 8.0775 13.4548 6.38584C15.4114 4.93917 17.4881 3.69084 19.7331 2.7475C22.3364 1.6525 25.0214 0.845836 27.8381 0.499169C29.4531 0.300836 31.0748 0.0975026 32.6964 0.154169C34.6598 0.222503 36.6364 0.285836 38.5598 0.779169C38.6614 0.905836 38.7998 0.880836 38.9348 0.874169L38.9281 0.862503C39.1114 1.2275 39.5031 1.31917 39.8131 1.49584C42.2531 2.88584 44.4464 4.59917 46.4114 6.5925C47.3948 7.58917 48.3048 8.66417 49.1148 9.81417C49.2514 10.0092 49.4564 10.1925 49.4014 10.4775C49.1898 10.4308 49.0398 10.2842 48.8781 10.1558C47.1748 8.81417 45.2764 7.78584 43.3064 6.91917C40.4931 5.6825 37.5231 4.99084 34.4581 4.7575C32.2898 4.5925 30.1148 4.63417 27.9714 5.02084C24.7781 5.59584 21.7381 6.6175 18.9114 8.25084C13.7931 11.2075 10.0064 15.3642 7.49143 20.7092C6.59643 22.6125 5.9381 24.6025 5.54477 26.6425C5.12143 28.8358 4.97643 31.0708 5.0681 33.3358C5.17143 35.9092 5.68143 38.3808 6.46477 40.7925C7.1731 42.9725 8.17143 45.0408 9.45143 46.9675C11.6631 50.2958 14.4014 53.0775 17.8014 55.1925C18.6948 55.7475 19.5864 56.3042 20.4798 56.8608H20.4831Z" fill="#E14856" fill-opacity="0.6"/>
<path d="M38.9365 0.879805C38.8015 0.888138 38.6632 0.911471 38.5615 0.784805C38.6982 0.769805 38.8465 0.708138 38.9365 0.879805Z" fill="#E14856"/>
<path d="M20.4829 56.8608C19.5896 56.3041 18.6979 55.7491 17.8046 55.1924C14.4046 53.0774 11.6663 50.2957 9.45459 46.9674C8.17459 45.0407 7.17626 42.9724 6.46792 40.7924C5.68459 38.3807 5.17459 35.9091 5.07126 33.3358C4.97959 31.0708 5.12459 28.8358 5.54792 26.6424C5.94126 24.6041 6.59959 22.6124 7.49459 20.7091C10.0079 15.3641 13.7946 11.2074 18.9146 8.25075C21.7413 6.61742 24.7813 5.59575 27.9746 5.02075C30.1179 4.63408 32.2929 4.59242 34.4613 4.75742C37.5263 4.99075 40.4963 5.68242 43.3096 6.91909C45.2796 7.78575 47.1779 8.81408 48.8813 10.1558C49.0429 10.2841 49.1929 10.4308 49.4046 10.4774C49.7446 10.7991 50.0829 11.1208 50.4213 11.4424C50.3529 11.6691 50.4763 11.8308 50.5846 12.0141C51.9979 14.3958 53.1179 16.9058 53.8229 19.5891C54.3113 21.4491 54.6346 23.3324 54.7879 25.2574C54.9379 27.1474 54.8679 29.0141 54.6563 30.8891C54.5329 31.9741 54.2729 33.0324 54.0896 34.1041C53.9896 34.6874 54.0079 35.3357 53.5463 35.8141C53.8679 33.7241 54.0113 31.6324 53.7813 29.5141C53.5146 27.0574 52.8613 24.7207 51.7846 22.5091C49.9396 18.7224 47.1813 15.7458 43.6129 13.5308C40.7829 11.7741 37.6696 10.7841 34.3663 10.5208C32.4529 10.3674 30.5279 10.4574 28.6129 10.8341C24.5813 11.6258 21.0663 13.3757 18.0663 16.1807C16.3713 17.7657 14.9446 19.5524 13.8113 21.5791C12.2829 24.3141 11.4013 27.2607 11.1413 30.3624C10.9796 32.2774 11.1063 34.2074 11.4813 36.1141C12.2163 39.8607 13.8263 43.1824 16.3313 46.0441C18.4446 48.4591 20.9646 50.3641 23.9396 51.6307C26.4979 52.7191 29.1596 53.3341 31.9463 53.3874C33.1496 53.4107 34.3396 53.3208 35.5346 53.1524C38.0029 52.8058 40.3279 52.0491 42.5113 50.8591C43.4146 50.3674 44.2813 49.8057 45.1646 49.2757C44.9763 49.8507 44.4513 50.1057 44.0329 50.4607C41.6929 52.4457 39.0729 53.9641 36.2429 55.1324C33.9396 56.0841 31.5513 56.7007 29.0813 57.0308C27.0513 57.3024 25.0279 57.5207 22.9746 57.2741C22.5696 57.2257 22.1396 57.0908 21.7179 57.2407C21.3079 57.1141 20.8963 56.9857 20.4863 56.8591L20.4829 56.8608Z" fill="#E14856" fill-opacity="0.4"/>
<path d="M53.5436 35.8189C54.0053 35.3406 53.9869 34.6923 54.0869 34.1089C54.2702 33.0373 54.5319 31.9789 54.6536 30.8939C54.8653 29.0189 54.9369 27.1539 54.7852 25.2623C54.6319 23.3373 54.3069 21.4539 53.8203 19.5939C53.1169 16.9106 51.9952 14.4006 50.5819 12.0189C50.4736 11.8356 50.3503 11.6739 50.4186 11.4473C51.3269 12.0839 52.0702 12.9056 52.7902 13.7256C55.7769 17.1306 57.9736 20.9773 59.0236 25.4156C59.4703 27.3006 59.7319 29.2089 59.7702 31.1623C59.8102 33.2273 59.7369 35.2789 59.3469 37.2989C58.8802 39.7223 58.0953 42.0489 56.9869 44.2673C56.0019 46.2389 54.7886 48.0556 53.3686 49.7256C49.4619 54.3206 44.5752 57.3406 38.7002 58.7506C36.2552 59.3373 33.7736 59.6156 31.2702 59.4806C27.9619 59.3023 24.7352 58.6789 21.7119 57.2423C22.1336 57.0939 22.5619 57.2273 22.9686 57.2756C25.0219 57.5223 27.0452 57.3039 29.0752 57.0323C31.5469 56.7023 33.9336 56.0839 36.2369 55.1339C39.0669 53.9656 41.6869 52.4473 44.0269 50.4623C44.4453 50.1073 44.9703 49.8523 45.1586 49.2773C45.4269 49.2856 45.6336 49.2139 45.6519 48.8989C46.4653 48.1356 47.2919 47.3889 47.9936 46.5123C50.5536 43.3156 52.6286 39.8706 53.5386 35.8189H53.5436Z" fill="#E14856" fill-opacity="0.6"/>
<path d="M43.2039 23.8837C41.3926 23.7038 39.5814 23.5688 37.7589 23.4675V23.4562L37.5114 21.9937C37.3426 20.9587 37.0951 19.4062 34.4626 19.4062H31.5151C28.8939 19.4062 28.6464 20.8912 28.4664 21.9825L28.2301 23.4225C27.1839 23.49 26.1376 23.5575 25.0914 23.6588L22.7964 23.8837C22.3239 23.9288 21.9864 24.345 22.0314 24.8063C22.0764 25.2675 22.4814 25.605 22.9539 25.56L25.2489 25.335C31.1439 24.75 37.0839 24.975 43.0464 25.5712C43.0801 25.5712 43.1026 25.5712 43.1364 25.5712C43.5639 25.5712 43.9351 25.245 43.9801 24.8063C44.0139 24.345 43.6764 23.9288 43.2039 23.8837Z" fill="#E14856"/>
<path d="M41.1337 27.1575C40.8637 26.8763 40.4925 26.7188 40.11 26.7188H25.89C25.5075 26.7188 25.125 26.8763 24.8662 27.1575C24.6075 27.4388 24.4612 27.8212 24.4837 28.215L25.1812 39.7575C25.305 41.4675 25.4625 43.605 29.3887 43.605H36.6112C40.5375 43.605 40.695 41.4788 40.8187 39.7575L41.5162 28.2263C41.5387 27.8213 41.3925 27.4388 41.1337 27.1575ZM34.8675 37.9688H31.1212C30.66 37.9688 30.2775 37.5863 30.2775 37.125C30.2775 36.6637 30.66 36.2812 31.1212 36.2812H34.8675C35.3287 36.2812 35.7112 36.6637 35.7112 37.125C35.7112 37.5863 35.3287 37.9688 34.8675 37.9688ZM35.8125 33.4688H30.1875C29.7262 33.4688 29.3437 33.0862 29.3437 32.625C29.3437 32.1638 29.7262 31.7812 30.1875 31.7812H35.8125C36.2737 31.7812 36.6562 32.1638 36.6562 32.625C36.6562 33.0862 36.2737 33.4688 35.8125 33.4688Z" fill="#E14856"/>
</g>
<defs>
<clipPath id="clip0_4208_85390">
<rect width="64" height="64" fill="white" transform="translate(0.5)"/>
</clipPath>
</defs>
</svg>
